<svg xmlns="http://www.w3.org/2000/svg" viewBox="1400.922 274.722 91 70.399">
  <defs>
    <style>
      .cls-1 {
        fill: none;
        stroke: #253494;
        stroke-width: 3px;
      }
    </style>
  </defs>
  <g id="Group_42" data-name="Group 42" transform="translate(1293.549 -105.847)">
    <path id="Path_53" data-name="Path 53" class="cls-1" d="M1458.873,386.814s28.026-10.632,43.079,0c15.712-9.071,44.921,0,44.921,0v61.4s-20.66-13.336-44.921-1.367c-20.589-11.887-43.079,0-43.079,0Z" transform="translate(-1350)"/>
    <path id="Path_54" data-name="Path 54" class="cls-1" d="M1505,447.006V387.125" transform="translate(-1352.348 -0.256)"/>
    <path id="Path_55" data-name="Path 55" class="cls-1" d="M116.095,394.161s16.595-5.285,28.159-1.132a17.066,17.066,0,0,1,2.659,1.245" transform="translate(-0.368 -0.476)"/>
    <path id="Path_56" data-name="Path 56" class="cls-1" d="M146.912,394.161s-16.595-5.285-28.158-1.132a17.065,17.065,0,0,0-2.659,1.245" transform="translate(43.102 -0.476)"/>
    <path id="Path_57" data-name="Path 57" class="cls-1" d="M116.095,394.161s16.595-5.285,28.159-1.132a17.066,17.066,0,0,1,2.659,1.245" transform="translate(-0.368 6.168)"/>
    <path id="Path_58" data-name="Path 58" class="cls-1" d="M146.912,394.161s-16.595-5.285-28.158-1.132a17.065,17.065,0,0,0-2.659,1.245" transform="translate(43.102 6.168)"/>
    <path id="Path_59" data-name="Path 59" class="cls-1" d="M116.095,394.161s16.595-5.285,28.159-1.132a17.066,17.066,0,0,1,2.659,1.245" transform="translate(-0.368 12.812)"/>
    <path id="Path_60" data-name="Path 60" class="cls-1" d="M146.912,394.161s-16.595-5.285-28.158-1.132a17.065,17.065,0,0,0-2.659,1.245" transform="translate(43.102 12.812)"/>
    <path id="Path_61" data-name="Path 61" class="cls-1" d="M116.095,394.161s16.595-5.285,28.159-1.132a17.066,17.066,0,0,1,2.659,1.245" transform="translate(-0.368 19.456)"/>
    <path id="Path_62" data-name="Path 62" class="cls-1" d="M146.912,394.161s-16.595-5.285-28.158-1.132a17.065,17.065,0,0,0-2.659,1.245" transform="translate(43.102 19.456)"/>
    <path id="Path_63" data-name="Path 63" class="cls-1" d="M116.095,394.161s16.595-5.285,28.159-1.132a17.066,17.066,0,0,1,2.659,1.245" transform="translate(-0.368 26.099)"/>
    <path id="Path_64" data-name="Path 64" class="cls-1" d="M146.912,394.161s-16.595-5.285-28.158-1.132a17.065,17.065,0,0,0-2.659,1.245" transform="translate(43.102 26.099)"/>
    <path id="Path_65" data-name="Path 65" class="cls-1" d="M116.095,394.161s16.595-5.285,28.159-1.132a17.066,17.066,0,0,1,2.659,1.245" transform="translate(-0.368 32.743)"/>
    <path id="Path_66" data-name="Path 66" class="cls-1" d="M146.912,394.161s-16.595-5.285-28.158-1.132a17.065,17.065,0,0,0-2.659,1.245" transform="translate(43.102 32.743)"/>
    <path id="Path_67" data-name="Path 67" class="cls-1" d="M116.095,394.161s16.595-5.285,28.159-1.132a17.066,17.066,0,0,1,2.659,1.245" transform="translate(-0.368 39.387)"/>
    <path id="Path_68" data-name="Path 68" class="cls-1" d="M146.912,394.161s-16.595-5.285-28.158-1.132a17.065,17.065,0,0,0-2.659,1.245" transform="translate(43.102 39.387)"/>
  </g>
</svg>
